<mxfile host="app.diagrams.net" agent="Mozilla/5.0 (Windows NT 10.0; Win64; x64) AppleWebKit/537.36 (KHTML, like Gecko) Chrome/131.0.0.0 Safari/537.36" version="25.0.1">
  <diagram name="Page-1" id="13e1069c-82ec-6db2-03f1-153e76fe0fe0">
    <mxGraphModel dx="2049" dy="1054" grid="1" gridSize="10" guides="1" tooltips="1" connect="1" arrows="1" fold="1" page="1" pageScale="1" pageWidth="1100" pageHeight="850" background="none" math="0" shadow="0">
      <root>
        <mxCell id="0" />
        <mxCell id="1" parent="0" />
        <mxCell id="7unIRyP_K1z6dLQqS3BA-48" value="" style="rounded=0;whiteSpace=wrap;html=1;fillColor=none;dashed=1;" vertex="1" parent="1">
          <mxGeometry x="80" y="190" width="1240" height="360" as="geometry" />
        </mxCell>
        <mxCell id="7unIRyP_K1z6dLQqS3BA-1" value="Utilisateur" style="rounded=0;whiteSpace=wrap;html=1;" vertex="1" parent="1">
          <mxGeometry x="40" y="40" width="120" height="60" as="geometry" />
        </mxCell>
        <mxCell id="7unIRyP_K1z6dLQqS3BA-5" value="" style="endArrow=none;html=1;rounded=0;entryX=0.5;entryY=1;entryDx=0;entryDy=0;" edge="1" parent="1" target="7unIRyP_K1z6dLQqS3BA-1">
          <mxGeometry width="50" height="50" relative="1" as="geometry">
            <mxPoint x="100" y="830" as="sourcePoint" />
            <mxPoint x="110" y="140" as="targetPoint" />
          </mxGeometry>
        </mxCell>
        <mxCell id="7unIRyP_K1z6dLQqS3BA-6" value="Page d&#39;accueil" style="rounded=0;whiteSpace=wrap;html=1;" vertex="1" parent="1">
          <mxGeometry x="280" y="40" width="120" height="60" as="geometry" />
        </mxCell>
        <mxCell id="7unIRyP_K1z6dLQqS3BA-7" value="" style="endArrow=none;html=1;rounded=0;entryX=0.5;entryY=1;entryDx=0;entryDy=0;" edge="1" parent="1" target="7unIRyP_K1z6dLQqS3BA-6">
          <mxGeometry width="50" height="50" relative="1" as="geometry">
            <mxPoint x="340" y="830" as="sourcePoint" />
            <mxPoint x="350" y="140" as="targetPoint" />
          </mxGeometry>
        </mxCell>
        <mxCell id="7unIRyP_K1z6dLQqS3BA-8" value="Page candidats" style="rounded=0;whiteSpace=wrap;html=1;" vertex="1" parent="1">
          <mxGeometry x="520" y="40" width="120" height="60" as="geometry" />
        </mxCell>
        <mxCell id="7unIRyP_K1z6dLQqS3BA-9" value="" style="endArrow=none;html=1;rounded=0;entryX=0.5;entryY=1;entryDx=0;entryDy=0;" edge="1" parent="1" target="7unIRyP_K1z6dLQqS3BA-8">
          <mxGeometry width="50" height="50" relative="1" as="geometry">
            <mxPoint x="580" y="830" as="sourcePoint" />
            <mxPoint x="590" y="140" as="targetPoint" />
          </mxGeometry>
        </mxCell>
        <mxCell id="7unIRyP_K1z6dLQqS3BA-10" value="Page recruteurs" style="rounded=0;whiteSpace=wrap;html=1;" vertex="1" parent="1">
          <mxGeometry x="760" y="40" width="120" height="60" as="geometry" />
        </mxCell>
        <mxCell id="7unIRyP_K1z6dLQqS3BA-11" value="" style="endArrow=none;html=1;rounded=0;entryX=0.5;entryY=1;entryDx=0;entryDy=0;" edge="1" parent="1" target="7unIRyP_K1z6dLQqS3BA-10">
          <mxGeometry width="50" height="50" relative="1" as="geometry">
            <mxPoint x="820" y="830" as="sourcePoint" />
            <mxPoint x="830" y="140" as="targetPoint" />
          </mxGeometry>
        </mxCell>
        <mxCell id="7unIRyP_K1z6dLQqS3BA-12" value="Page détails d&#39;un candidat" style="rounded=0;whiteSpace=wrap;html=1;" vertex="1" parent="1">
          <mxGeometry x="1000" y="40" width="120" height="60" as="geometry" />
        </mxCell>
        <mxCell id="7unIRyP_K1z6dLQqS3BA-13" value="" style="endArrow=none;html=1;rounded=0;entryX=0.5;entryY=1;entryDx=0;entryDy=0;" edge="1" parent="1" target="7unIRyP_K1z6dLQqS3BA-12">
          <mxGeometry width="50" height="50" relative="1" as="geometry">
            <mxPoint x="1060" y="830" as="sourcePoint" />
            <mxPoint x="1070" y="140" as="targetPoint" />
          </mxGeometry>
        </mxCell>
        <mxCell id="7unIRyP_K1z6dLQqS3BA-14" value="API back-end" style="rounded=0;whiteSpace=wrap;html=1;" vertex="1" parent="1">
          <mxGeometry x="1240" y="40" width="120" height="60" as="geometry" />
        </mxCell>
        <mxCell id="7unIRyP_K1z6dLQqS3BA-15" value="" style="endArrow=none;html=1;rounded=0;entryX=0.5;entryY=1;entryDx=0;entryDy=0;" edge="1" parent="1" target="7unIRyP_K1z6dLQqS3BA-14">
          <mxGeometry width="50" height="50" relative="1" as="geometry">
            <mxPoint x="1300" y="830" as="sourcePoint" />
            <mxPoint x="1310" y="140" as="targetPoint" />
          </mxGeometry>
        </mxCell>
        <mxCell id="7unIRyP_K1z6dLQqS3BA-16" value="" style="endArrow=classic;html=1;rounded=0;" edge="1" parent="1">
          <mxGeometry width="50" height="50" relative="1" as="geometry">
            <mxPoint x="100" y="140" as="sourcePoint" />
            <mxPoint x="340" y="140" as="targetPoint" />
          </mxGeometry>
        </mxCell>
        <mxCell id="7unIRyP_K1z6dLQqS3BA-17" value="Accède à l&#39;application" style="text;html=1;align=center;verticalAlign=middle;whiteSpace=wrap;rounded=0;fontSize=10;" vertex="1" parent="1">
          <mxGeometry x="170" y="120" width="100" height="30" as="geometry" />
        </mxCell>
        <mxCell id="7unIRyP_K1z6dLQqS3BA-18" value="Affiche boutons &lt;b&gt;Candidats&lt;/b&gt; et &lt;b&gt;Recruteurs&lt;/b&gt;" style="text;html=1;align=center;verticalAlign=middle;whiteSpace=wrap;rounded=0;fontSize=10;" vertex="1" parent="1">
          <mxGeometry x="280" y="140" width="130" height="30" as="geometry" />
        </mxCell>
        <mxCell id="7unIRyP_K1z6dLQqS3BA-19" value="" style="endArrow=classic;html=1;rounded=0;" edge="1" parent="1">
          <mxGeometry width="50" height="50" relative="1" as="geometry">
            <mxPoint x="100" y="230" as="sourcePoint" />
            <mxPoint x="340" y="230" as="targetPoint" />
          </mxGeometry>
        </mxCell>
        <mxCell id="7unIRyP_K1z6dLQqS3BA-20" value="Clique sur le bouton C&lt;b&gt;andidats&lt;/b&gt;" style="text;html=1;align=center;verticalAlign=middle;whiteSpace=wrap;rounded=0;fontSize=10;" vertex="1" parent="1">
          <mxGeometry x="145" y="210" width="150" height="30" as="geometry" />
        </mxCell>
        <mxCell id="7unIRyP_K1z6dLQqS3BA-23" value="Redirige vers page Candidats" style="text;html=1;align=center;verticalAlign=middle;whiteSpace=wrap;rounded=0;fontSize=10;" vertex="1" parent="1">
          <mxGeometry x="380" y="220" width="150" height="30" as="geometry" />
        </mxCell>
        <mxCell id="7unIRyP_K1z6dLQqS3BA-24" value="" style="endArrow=classic;html=1;rounded=0;" edge="1" parent="1">
          <mxGeometry width="50" height="50" relative="1" as="geometry">
            <mxPoint x="340" y="240" as="sourcePoint" />
            <mxPoint x="580" y="240" as="targetPoint" />
          </mxGeometry>
        </mxCell>
        <mxCell id="7unIRyP_K1z6dLQqS3BA-26" value="" style="endArrow=classic;html=1;rounded=0;" edge="1" parent="1">
          <mxGeometry width="50" height="50" relative="1" as="geometry">
            <mxPoint x="100" y="300" as="sourcePoint" />
            <mxPoint x="580" y="300" as="targetPoint" />
          </mxGeometry>
        </mxCell>
        <mxCell id="7unIRyP_K1z6dLQqS3BA-27" value="Remplit et soumet le formulaire" style="text;html=1;align=center;verticalAlign=middle;whiteSpace=wrap;rounded=0;fontSize=10;" vertex="1" parent="1">
          <mxGeometry x="145" y="280" width="150" height="30" as="geometry" />
        </mxCell>
        <mxCell id="7unIRyP_K1z6dLQqS3BA-29" value="" style="endArrow=block;html=1;rounded=0;endFill=0;" edge="1" parent="1">
          <mxGeometry width="50" height="50" relative="1" as="geometry">
            <mxPoint x="580" y="310" as="sourcePoint" />
            <mxPoint x="1300" y="310" as="targetPoint" />
          </mxGeometry>
        </mxCell>
        <mxCell id="7unIRyP_K1z6dLQqS3BA-30" value="Envoie des données du candidat" style="text;html=1;align=center;verticalAlign=middle;whiteSpace=wrap;rounded=0;fontSize=10;" vertex="1" parent="1">
          <mxGeometry x="860" y="290" width="150" height="30" as="geometry" />
        </mxCell>
        <mxCell id="7unIRyP_K1z6dLQqS3BA-31" value="" style="endArrow=none;html=1;rounded=0;startArrow=block;startFill=0;dashed=1;endFill=0;" edge="1" parent="1">
          <mxGeometry width="50" height="50" relative="1" as="geometry">
            <mxPoint x="580" y="340" as="sourcePoint" />
            <mxPoint x="1300" y="340" as="targetPoint" />
          </mxGeometry>
        </mxCell>
        <mxCell id="7unIRyP_K1z6dLQqS3BA-32" value="Confirme enregistrement des données" style="text;html=1;align=center;verticalAlign=middle;whiteSpace=wrap;rounded=0;fontSize=10;" vertex="1" parent="1">
          <mxGeometry x="840" y="320" width="200" height="30" as="geometry" />
        </mxCell>
        <mxCell id="7unIRyP_K1z6dLQqS3BA-33" value="Affiche message de confirmation" style="text;html=1;align=center;verticalAlign=middle;whiteSpace=wrap;rounded=0;fontSize=10;" vertex="1" parent="1">
          <mxGeometry x="515" y="340" width="130" height="30" as="geometry" />
        </mxCell>
        <mxCell id="7unIRyP_K1z6dLQqS3BA-25" value="Affiche formulaire d&#39;enregistrement" style="text;html=1;align=center;verticalAlign=middle;whiteSpace=wrap;rounded=0;fontSize=10;" vertex="1" parent="1">
          <mxGeometry x="520" y="240" width="130" height="30" as="geometry" />
        </mxCell>
        <mxCell id="7unIRyP_K1z6dLQqS3BA-35" value="" style="endArrow=classic;html=1;rounded=0;" edge="1" parent="1">
          <mxGeometry width="50" height="50" relative="1" as="geometry">
            <mxPoint x="100" y="420" as="sourcePoint" />
            <mxPoint x="340" y="420" as="targetPoint" />
          </mxGeometry>
        </mxCell>
        <mxCell id="7unIRyP_K1z6dLQqS3BA-36" value="Clique sur le bouton &lt;b&gt;Recruteurs&lt;/b&gt;" style="text;html=1;align=center;verticalAlign=middle;whiteSpace=wrap;rounded=0;fontSize=10;" vertex="1" parent="1">
          <mxGeometry x="145" y="400" width="150" height="30" as="geometry" />
        </mxCell>
        <mxCell id="7unIRyP_K1z6dLQqS3BA-37" value="" style="endArrow=classic;html=1;rounded=0;" edge="1" parent="1">
          <mxGeometry width="50" height="50" relative="1" as="geometry">
            <mxPoint x="340" y="430" as="sourcePoint" />
            <mxPoint x="820" y="430" as="targetPoint" />
          </mxGeometry>
        </mxCell>
        <mxCell id="7unIRyP_K1z6dLQqS3BA-38" value="Redirige vers page Recruteurs" style="text;html=1;align=center;verticalAlign=middle;whiteSpace=wrap;rounded=0;fontSize=10;" vertex="1" parent="1">
          <mxGeometry x="380" y="410" width="150" height="30" as="geometry" />
        </mxCell>
        <mxCell id="7unIRyP_K1z6dLQqS3BA-39" value="" style="endArrow=block;html=1;rounded=0;endFill=0;" edge="1" parent="1">
          <mxGeometry width="50" height="50" relative="1" as="geometry">
            <mxPoint x="820" y="440" as="sourcePoint" />
            <mxPoint x="1300" y="440" as="targetPoint" />
          </mxGeometry>
        </mxCell>
        <mxCell id="7unIRyP_K1z6dLQqS3BA-40" value="Demande de la liste des candidats" style="text;html=1;align=center;verticalAlign=middle;whiteSpace=wrap;rounded=0;fontSize=10;" vertex="1" parent="1">
          <mxGeometry x="950" y="420" width="220" height="30" as="geometry" />
        </mxCell>
        <mxCell id="7unIRyP_K1z6dLQqS3BA-41" value="" style="endArrow=none;html=1;rounded=0;startArrow=block;startFill=0;dashed=1;endFill=0;" edge="1" parent="1">
          <mxGeometry width="50" height="50" relative="1" as="geometry">
            <mxPoint x="820" y="470" as="sourcePoint" />
            <mxPoint x="1300" y="470" as="targetPoint" />
          </mxGeometry>
        </mxCell>
        <mxCell id="7unIRyP_K1z6dLQqS3BA-42" value="Affiche la liste des candidats" style="text;html=1;align=center;verticalAlign=middle;whiteSpace=wrap;rounded=0;fontSize=10;" vertex="1" parent="1">
          <mxGeometry x="755" y="470" width="125" height="30" as="geometry" />
        </mxCell>
        <mxCell id="7unIRyP_K1z6dLQqS3BA-43" value="Renvoie la liste des candidats" style="text;html=1;align=center;verticalAlign=middle;whiteSpace=wrap;rounded=0;fontSize=10;" vertex="1" parent="1">
          <mxGeometry x="960" y="450" width="200" height="30" as="geometry" />
        </mxCell>
        <mxCell id="7unIRyP_K1z6dLQqS3BA-45" value="" style="endArrow=classic;html=1;rounded=0;" edge="1" parent="1">
          <mxGeometry width="50" height="50" relative="1" as="geometry">
            <mxPoint x="100" y="510" as="sourcePoint" />
            <mxPoint x="1060" y="510" as="targetPoint" />
          </mxGeometry>
        </mxCell>
        <mxCell id="7unIRyP_K1z6dLQqS3BA-46" value="Clique sur un candidat" style="text;html=1;align=center;verticalAlign=middle;whiteSpace=wrap;rounded=0;fontSize=10;" vertex="1" parent="1">
          <mxGeometry x="140" y="490" width="150" height="30" as="geometry" />
        </mxCell>
        <mxCell id="7unIRyP_K1z6dLQqS3BA-47" value="Affiche les détails du candidat" style="text;html=1;align=center;verticalAlign=middle;whiteSpace=wrap;rounded=0;fontSize=10;" vertex="1" parent="1">
          <mxGeometry x="1000" y="510" width="125" height="30" as="geometry" />
        </mxCell>
        <mxCell id="7unIRyP_K1z6dLQqS3BA-49" value="" style="endArrow=none;dashed=1;html=1;rounded=0;entryX=0;entryY=0.553;entryDx=0;entryDy=0;entryPerimeter=0;" edge="1" parent="1" target="7unIRyP_K1z6dLQqS3BA-48">
          <mxGeometry width="50" height="50" relative="1" as="geometry">
            <mxPoint x="1320" y="389" as="sourcePoint" />
            <mxPoint x="90" y="384" as="targetPoint" />
          </mxGeometry>
        </mxCell>
        <mxCell id="7unIRyP_K1z6dLQqS3BA-50" value="&lt;font style=&quot;font-size: 10px;&quot;&gt;[Choisit Espace Candidats]&lt;/font&gt;" style="text;html=1;align=center;verticalAlign=middle;whiteSpace=wrap;rounded=0;" vertex="1" parent="1">
          <mxGeometry x="610" y="180" width="190" height="30" as="geometry" />
        </mxCell>
        <mxCell id="7unIRyP_K1z6dLQqS3BA-51" value="&lt;font style=&quot;font-size: 10px;&quot;&gt;[Choisit Espace Recruteurs]&lt;/font&gt;" style="text;html=1;align=center;verticalAlign=middle;whiteSpace=wrap;rounded=0;" vertex="1" parent="1">
          <mxGeometry x="605" y="380" width="190" height="30" as="geometry" />
        </mxCell>
        <mxCell id="7unIRyP_K1z6dLQqS3BA-52" value="" style="endArrow=classic;html=1;rounded=0;" edge="1" parent="1">
          <mxGeometry width="50" height="50" relative="1" as="geometry">
            <mxPoint x="100" y="600" as="sourcePoint" />
            <mxPoint x="580" y="600" as="targetPoint" />
          </mxGeometry>
        </mxCell>
        <mxCell id="7unIRyP_K1z6dLQqS3BA-54" value="Clique sur le bouton Retour (depuis Candidats)" style="text;html=1;align=center;verticalAlign=middle;whiteSpace=wrap;rounded=0;fontSize=10;" vertex="1" parent="1">
          <mxGeometry x="230" y="580" width="220" height="30" as="geometry" />
        </mxCell>
        <mxCell id="7unIRyP_K1z6dLQqS3BA-55" value="" style="endArrow=classic;html=1;rounded=0;" edge="1" parent="1">
          <mxGeometry width="50" height="50" relative="1" as="geometry">
            <mxPoint x="580" y="630" as="sourcePoint" />
            <mxPoint x="340" y="630" as="targetPoint" />
          </mxGeometry>
        </mxCell>
        <mxCell id="7unIRyP_K1z6dLQqS3BA-56" value="Redirige vers page d&#39;accueil" style="text;html=1;align=center;verticalAlign=middle;whiteSpace=wrap;rounded=0;fontSize=10;" vertex="1" parent="1">
          <mxGeometry x="345" y="610" width="220" height="30" as="geometry" />
        </mxCell>
        <mxCell id="7unIRyP_K1z6dLQqS3BA-57" value="" style="endArrow=classic;html=1;rounded=0;" edge="1" parent="1">
          <mxGeometry width="50" height="50" relative="1" as="geometry">
            <mxPoint x="100" y="670" as="sourcePoint" />
            <mxPoint x="820" y="670" as="targetPoint" />
          </mxGeometry>
        </mxCell>
        <mxCell id="7unIRyP_K1z6dLQqS3BA-58" value="Clique sur le bouton Retour (depuis Recruteurs)" style="text;html=1;align=center;verticalAlign=middle;whiteSpace=wrap;rounded=0;fontSize=10;" vertex="1" parent="1">
          <mxGeometry x="350" y="650" width="220" height="30" as="geometry" />
        </mxCell>
        <mxCell id="7unIRyP_K1z6dLQqS3BA-60" value="" style="endArrow=classic;html=1;rounded=0;" edge="1" parent="1">
          <mxGeometry width="50" height="50" relative="1" as="geometry">
            <mxPoint x="820" y="700" as="sourcePoint" />
            <mxPoint x="340" y="700" as="targetPoint" />
          </mxGeometry>
        </mxCell>
        <mxCell id="7unIRyP_K1z6dLQqS3BA-61" value="Redirige vers page d&#39;accueil" style="text;html=1;align=center;verticalAlign=middle;whiteSpace=wrap;rounded=0;fontSize=10;" vertex="1" parent="1">
          <mxGeometry x="470" y="680" width="220" height="30" as="geometry" />
        </mxCell>
        <mxCell id="7unIRyP_K1z6dLQqS3BA-62" value="" style="endArrow=classic;html=1;rounded=0;" edge="1" parent="1">
          <mxGeometry width="50" height="50" relative="1" as="geometry">
            <mxPoint x="100" y="730" as="sourcePoint" />
            <mxPoint x="1060" y="730" as="targetPoint" />
          </mxGeometry>
        </mxCell>
        <mxCell id="7unIRyP_K1z6dLQqS3BA-63" value="Clique sur le bouton Retour (depuis Détails d&#39;un candidats)" style="text;html=1;align=center;verticalAlign=middle;whiteSpace=wrap;rounded=0;fontSize=10;" vertex="1" parent="1">
          <mxGeometry x="447.5" y="710" width="275" height="30" as="geometry" />
        </mxCell>
        <mxCell id="7unIRyP_K1z6dLQqS3BA-64" value="" style="endArrow=classic;html=1;rounded=0;" edge="1" parent="1">
          <mxGeometry width="50" height="50" relative="1" as="geometry">
            <mxPoint x="1060" y="760" as="sourcePoint" />
            <mxPoint x="580" y="760" as="targetPoint" />
          </mxGeometry>
        </mxCell>
        <mxCell id="7unIRyP_K1z6dLQqS3BA-65" value="Redirige vers page Recruteurs" style="text;html=1;align=center;verticalAlign=middle;whiteSpace=wrap;rounded=0;fontSize=10;" vertex="1" parent="1">
          <mxGeometry x="707.5" y="740" width="220" height="30" as="geometry" />
        </mxCell>
        <mxCell id="7unIRyP_K1z6dLQqS3BA-66" value="" style="rounded=0;whiteSpace=wrap;html=1;fillColor=none;dashed=1;" vertex="1" parent="1">
          <mxGeometry x="80" y="560" width="1240" height="220" as="geometry" />
        </mxCell>
        <mxCell id="7unIRyP_K1z6dLQqS3BA-67" value="&lt;font style=&quot;font-size: 10px;&quot;&gt;[Retour à la page précédente]&lt;/font&gt;" style="text;html=1;align=center;verticalAlign=middle;whiteSpace=wrap;rounded=0;" vertex="1" parent="1">
          <mxGeometry x="590" y="550" width="190" height="30" as="geometry" />
        </mxCell>
        <mxCell id="7unIRyP_K1z6dLQqS3BA-68" value="Utilisateur" style="rounded=0;whiteSpace=wrap;html=1;" vertex="1" parent="1">
          <mxGeometry x="40" y="830" width="120" height="60" as="geometry" />
        </mxCell>
        <mxCell id="7unIRyP_K1z6dLQqS3BA-69" value="Page d&#39;accueil" style="rounded=0;whiteSpace=wrap;html=1;" vertex="1" parent="1">
          <mxGeometry x="280" y="830" width="120" height="60" as="geometry" />
        </mxCell>
        <mxCell id="7unIRyP_K1z6dLQqS3BA-70" value="Page candidats" style="rounded=0;whiteSpace=wrap;html=1;" vertex="1" parent="1">
          <mxGeometry x="520" y="830" width="120" height="60" as="geometry" />
        </mxCell>
        <mxCell id="7unIRyP_K1z6dLQqS3BA-71" value="Page recruteurs" style="rounded=0;whiteSpace=wrap;html=1;" vertex="1" parent="1">
          <mxGeometry x="760" y="830" width="120" height="60" as="geometry" />
        </mxCell>
        <mxCell id="7unIRyP_K1z6dLQqS3BA-72" value="Page détails d&#39;un candidat" style="rounded=0;whiteSpace=wrap;html=1;" vertex="1" parent="1">
          <mxGeometry x="1000" y="830" width="120" height="60" as="geometry" />
        </mxCell>
        <mxCell id="7unIRyP_K1z6dLQqS3BA-73" value="API back-end" style="rounded=0;whiteSpace=wrap;html=1;" vertex="1" parent="1">
          <mxGeometry x="1240" y="830" width="120" height="60" as="geometry" />
        </mxCell>
      </root>
    </mxGraphModel>
  </diagram>
</mxfile>
